{"title":"Mission.Impossible.Ghost.Protocol.2011.BRRIP.720P.H264-ZEKTORM","uid":7183610,"size":3075769020,"categoryP":"video","categoryS":"hd___movies","magnet":"?xt=urn:btih:715e018ebb56594ab274dcd1ed3d5ab0ad37dae0&amp;dn=Mission.Impossible.Ghost.Protocol.2011.BRRIP.720P.H264-ZEKTORM&amp;tr=udp%3A%2F%2Ftracker.openbittorrent.com%3A80&amp;tr=udp%3A%2F%2Fopen.demonii.com%3A1337&amp;tr=udp%3A%2F%2Ftracker.coppersurfer.tk%3A6969&amp;tr=udp%3A%2F%2Fexodus.desync.com%3A6969","seeders":1,"leechers":0,"uploader":"blowley","files":5,"time":1334351068,"description":"Title                            : Mission: Impossible - Ghost Protocol\nYear                             : 2011\nGenre                            : Action | Adventure | Thriller\niMDB URL                         : http://www.imdb.com/title/tt1229238/\n\nComplete name                    : Mission.Impossible.Ghost.Protocol.2011.BRRIP.720P.H264-ZEKTORM.mp4\nFormat                           : MPEG-4\nFormat profile                   : Base Media\nCodec ID                         : isom\nFile size                        : 2.86 GiB\nDuration                         : 2h 12mn\nOverall bit rate                 : 3085 Kbps\nSubtitles                        : English (Format: srt)\n\nVideo\nID                               : 1\nFormat                           : AVC\nFormat/Info                      : Advanced Video Codec\nFormat profile                   : &lt;a class=&quot;__cf_email__&quot; href=&quot;/cdn-cgi/l/email-protection&quot; data-cfemail=&quot;d199b8b6b9919de5ffe1&quot;&gt;[email&amp;#160;protected]&lt;/a&gt;&lt;script cf-hash='f9e31' type=&quot;text/javascript&quot;&gt;\n/* &lt;![CDATA[ */!function(){try{var t=&quot;currentScript&quot;in document?document.currentScript:function(){for(var t=document.getElementsByTagName(&quot;script&quot;),e=t.length;e--;)if(t[e].getAttribute(&quot;cf-hash&quot;))return t[e]}();if(t&amp;&amp;t.previousSibling){var e,r,n,i,c=t.previousSibling,a=c.getAttribute(&quot;data-cfemail&quot;);if(a){for(e=&quot;&quot;,r=parseInt(a.substr(0,2),16),n=2;a.length-n;n+=2)i=parseInt(a.substr(n,2),16)^r,e+=String.fromCharCode(i);e=document.createTextNode(e),c.parentNode.replaceChild(e,c)}}}catch(u){}}();/* ]]&gt; */&lt;/script&gt;\nFormat settings, CABAC           : Yes\nFormat settings, ReFrames        : 12 frames\nCodec ID                         : avc1\nCodec ID/Info                    : Advanced Video Coding\nDuration                         : 2h 12mn\nBit rate mode                    : Variable\nBit rate                         : 2636 Kbps\nWidth                            : 1280 pixels\nHeight                           : 528 pixels\nDisplay aspect ratio             : 2.424\nFrame rate mode                  : Constant\nFrame rate                       : 23.976 fps\nResolution                       : 24 bits\nColorimetry                      : 4:2:0\nScan type                        : Progressive\nBits/(Pixel*Frame)               : 0.163\nStream size                      : 2.45 GiB (85%)\nTitle                            : Video\nWriting library                  : x264\n\nAudio\nID                               : 2\nFormat                           : AAC\nFormat/Info                      : Advanced Audio Codec\nFormat version                   : Version 4\nFormat profile                   : LC\nFormat settings, SBR             : No\nCodec ID                         : 40\nDuration                         : 2h 12mn\nBit rate mode                    : Variable\nBit rate                         : 445 Kbps\nMaximum bit rate                 : 581 Kbps\nChannel(s)                       : 6 channels\nChannel positions                : Front: L C R, Rear: L R, LFE\nSampling rate                    : 48.0 KHz\nResolution                       : 16 bits\nStream size                      : 423 MiB (14%)\nLanguage                         : English\n\n\nScreenshots:\n\n\n[img]http://img441.imageshack.us/img441/4474/snapmigp1.png[/img]\n\n[img]http://img696.imageshack.us/img696/7418/snapmigp2.png[/img]\n","torrent":{"xt":"urn:btih:715e018ebb56594ab274dcd1ed3d5ab0ad37dae0","amp;dn":"Mission.Impossible.Ghost.Protocol.2011.BRRIP.720P.H264-ZEKTORM","amp;tr":["udp%3A%2F%2Ftracker.openbittorrent.com%3A80","udp%3A%2F%2Fopen.demonii.com%3A1337","udp%3A%2F%2Ftracker.coppersurfer.tk%3A6969","udp%3A%2F%2Fexodus.desync.com%3A6969"],"infoHash":"715e018ebb56594ab274dcd1ed3d5ab0ad37dae0","infoHashBuffer":{"type":"Buffer","data":[113,94,1,142,187,86,89,74,178,116,220,209,237,61,90,176,173,55,218,224]},"announce":[],"urlList":[]}}